# xmcd
#
# Track frame offsets: 
#        150
#        24252
#        43400
#        62605
#        81402
#        97527
#        121302
#        142395
#        166925
#        190170
#
# Disc length: 2846 seconds
#
# Revision: 5
# Processed by: cddbd v1.5.2PL0 Copyright (c) Steve Scherf et al.
# Submitted via: ExactAudioCopyFreeDBPlugin 1.0
#
DISCID=820b1c0a
DTITLE=蕭煌奇+全方位樂團 - 你是我的眼 - 第一張創作專輯
DYEAR=1995
DGENRE=Blues
TTITLE0=你是我的眼
TTITLE1=逆風
TTITLE2=偶然的那一天
TTITLE3=天使蝴蝶
TTITLE4=摔出一個夢
TTITLE5=是我不要你的愛
TTITLE6=萬歲爺
TTITLE7=提燈籠的那一天
TTITLE8=為什麼我哪會愛著你
TTITLE9=小ㄚ頭
EXTD=
EXTT0=
EXTT1=
EXTT2=
EXTT3=
EXTT4=
EXTT5=
EXTT6=
EXTT7=
EXTT8=
EXTT9=
PLAYORDER=
